{"accessors" : [{"bufferView" : 0, "byteOffset" : 0, "componentType" : 5123, "count" : 56952, "type" : "SCALAR", "max" : [38065], "min" : [0]}, {"bufferView" : 1, "byteOffset" : 0, "componentType" : 5126, "count" : 38066, "type" : "VEC3", "max" : [0.23663510382175446, 0.9169207811355591, 0.3157893121242523], "min" : [-0.254401296377182, -0.3832835853099823, -0.3206912875175476], "name" : "POSITION"}, {"bufferView" : 1, "byteOffset" : 12, "componentType" : 5126, "count" : 38066, "type" : "VEC3", "max" : [0.9998382925987244, 0.9999165534973145, 0.9996070861816406], "min" : [-0.9998382925987244, -0.9999165534973145, -0.9996070861816406], "name" : "NORMAL"}, {"bufferView" : 0, "byteOffset" : 113904, "componentType" : 5123, "count" : 630, "type" : "SCALAR", "max" : [347], "min" : [0]}, {"bufferView" : 2, "byteOffset" : 0, "componentType" : 5126, "count" : 348, "type" : "VEC3", "max" : [0.13500230014324188, 0.7470343112945557, 0.1501125991344452], "min" : [-0.12380319833755493, 0.4537400007247925, -0.10776049643754959], "name" : "POSITION"}, {"bufferView" : 2, "byteOffset" : 12, "componentType" : 5126, "count" : 348, "type" : "VEC3", "max" : [0.9577526450157166, 0.9996518492698669, 0.9579828381538391], "min" : [-0.9577510356903076, -0.9996519088745117, -0.9579812288284302], "name" : "NORMAL"}, {"bufferView" : 0, "byteOffset" : 115164, "componentType" : 5123, "count" : 264, "type" : "SCALAR", "max" : [195], "min" : [0]}, {"bufferView" : 3, "byteOffset" : 0, "componentType" : 5126, "count" : 196, "type" : "VEC3", "max" : [0.16008849442005157, 0.9653074145317078, 0.17581920325756073], "min" : [-0.16069479286670685, 0.28278669714927673, -0.13771329820156097], "name" : "POSITION"}, {"bufferView" : 3, "byteOffset" : 12, "componentType" : 5126, "count" : 196, "type" : "VEC3", "max" : [0.9871079325675964, 0.8996045589447021, 0.9870724081993103], "min" : [-0.9883567690849304, -0.4901812970638275, -0.988484799861908], "name" : "NORMAL"}, {"bufferView" : 0, "byteOffset" : 115692, "componentType" : 5123, "count" : 2304, "type" : "SCALAR", "max" : [1539], "min" : [0]}, {"bufferView" : 4, "byteOffset" : 0, "componentType" : 5126, "count" : 1540, "type" : "VEC3", "max" : [0.14963530004024506, 0.7465025186538696, 0.1647333949804306], "min" : [-0.1384465992450714, 0.6341391801834106, -0.12239769846200943], "name" : "POSITION"}, {"bufferView" : 4, "byteOffset" : 12, "componentType" : 5126, "count" : 1540, "type" : "VEC3", "max" : [0.9969442486763, 0.969515323638916, 0.9971385598182678], "min" : [-0.9969442486763, -0.9695153832435608, -0.9971385598182678], "name" : "NORMAL"}, {"bufferView" : 0, "byteOffset" : 120300, "componentType" : 5123, "count" : 987, "type" : "SCALAR", "max" : [767], "min" : [0]}, {"bufferView" : 5, "byteOffset" : 0, "componentType" : 5126, "count" : 768, "type" : "VEC3", "max" : [0.04944029077887535, 0.5050123929977417, 0.07176954299211502], "min" : [-0.05803164839744568, 0.2769753932952881, -0.05057835951447487], "name" : "POSITION"}, {"bufferView" : 5, "byteOffset" : 12, "componentType" : 5126, "count" : 768, "type" : "VEC3", "max" : [0.9964211583137512, 0.968851625919342, 0.9854597449302673], "min" : [-0.9551913738250732, -0.9740796685218811, -0.9876465797424316], "name" : "NORMAL"}, {"bufferView" : 0, "byteOffset" : 122276, "componentType" : 5123, "count" : 195, "type" : "SCALAR", "max" : [148], "min" : [0]}, {"bufferView" : 6, "byteOffset" : 0, "componentType" : 5126, "count" : 149, "type" : "VEC3", "max" : [0.04944029077887535, 0.4813731014728546, 0.07647913694381714], "min" : [-0.05803164839744568, 0.2769753932952881, -0.05057835951447487], "name" : "POSITION"}, {"bufferView" : 6, "byteOffset" : 12, "componentType" : 5126, "count" : 149, "type" : "VEC3", "max" : [0.9469870328903198, 1, 0.9872411489486694], "min" : [-0.9996541142463684, -0.8411731123924255, -0.9753250479698181], "name" : "NORMAL"}, {"bufferView" : 0, "byteOffset" : 122668, "componentType" : 5123, "count" : 150, "type" : "SCALAR", "max" : [117], "min" : [0]}, {"bufferView" : 7, "byteOffset" : 0, "componentType" : 5126, "count" : 118, "type" : "VEC3", "max" : [0.04944029077887535, 0.4678112864494324, 0.07647913694381714], "min" : [-0.05301620066165924, 0.2769753932952881, -0.05057835951447487], "name" : "POSITION"}, {"bufferView" : 7, "byteOffset" : 12, "componentType" : 5126, "count" : 118, "type" : "VEC3", "max" : [0.9551913738250732, 0.5872849822044373, 0.9933825135231018], "min" : [-0.9999865293502808, -0.8712582588195801, -0.9793639183044434], "name" : "NORMAL"}], "asset" : {"generator" : "Aspose.3D 24.6.0", "version" : "2.0"}, "buffers" : [{"uri" : "buffer.bin", "byteLength" : 1111440}], "bufferViews" : [{"buffer" : 0, "byteOffset" : 0, "byteLength" : 122968, "target" : 34963}, {"buffer" : 0, "byteOffset" : 122972, "byteLength" : 913584, "byteStride" : 24, "target" : 34962}, {"buffer" : 0, "byteOffset" : 1036560, "byteLength" : 8352, "byteStride" : 24, "target" : 34962}, {"buffer" : 0, "byteOffset" : 1044916, "byteLength" : 4704, "byteStride" : 24, "target" : 34962}, {"buffer" : 0, "byteOffset" : 1049624, "byteLength" : 36960, "byteStride" : 24, "target" : 34962}, {"buffer" : 0, "byteOffset" : 1086588, "byteLength" : 18432, "byteStride" : 24, "target" : 34962}, {"buffer" : 0, "byteOffset" : 1105024, "byteLength" : 3576, "byteStride" : 24, "target" : 34962}, {"buffer" : 0, "byteOffset" : 1108604, "byteLength" : 2832, "byteStride" : 24, "target" : 34962}], "meshes" : [{"primitives" : [{"attributes" : {"POSITION" : 1, "NORMAL" : 2}, "indices" : 0, "mode" : 4}, {"attributes" : {"POSITION" : 4, "NORMAL" : 5}, "indices" : 3, "mode" : 4}, {"attributes" : {"POSITION" : 7, "NORMAL" : 8}, "indices" : 6, "mode" : 4}, {"attributes" : {"POSITION" : 10, "NORMAL" : 11}, "indices" : 9, "mode" : 4}, {"attributes" : {"POSITION" : 13, "NORMAL" : 14}, "indices" : 12, "mode" : 4}, {"attributes" : {"POSITION" : 16, "NORMAL" : 17}, "indices" : 15, "mode" : 4}, {"attributes" : {"POSITION" : 19, "NORMAL" : 20}, "indices" : 18, "mode" : 4}], "name" : ""}], "nodes" : [{"mesh" : 0, "name" : ""}], "scene" : 0, "scenes" : [{"nodes" : [0]}]}